<svg id="Camada_1" data-name="Camada 1" xmlns="http://www.w3.org/2000/svg" xmlns:xlink="http://www.w3.org/1999/xlink" viewBox="0 0 1011.97 1283.6"><defs><style>.cls-1,.cls-4{fill:none;}.cls-2{fill:#fff;}.cls-3{clip-path:url(#clip-path);}.cls-4{stroke:#fff;stroke-miterlimit:10;stroke-width:7px;}</style><clipPath id="clip-path" transform="translate(-20.55 -19.85)"><rect class="cls-1" x="-27.69" y="-60.75" width="1080" height="1080"/></clipPath></defs><title>Logo Leonardo Padovani Branco</title><polygon class="cls-2" points="181.89 326.13 167.5 326.13 167.5 447.44 233.35 447.44 233.35 445.7 181.89 445.7 181.89 326.13"/><path class="cls-2" d="M327,388.44q-9.7-8.49-23.92-8.49-17.67,0-29.11,12t-11.44,33.61q0,21.68,10.92,32.06T301.81,468a86,86,0,0,0,31.28-5.37l-.52-1.21q-13.51,5.19-30.84,5.19-12.32,0-19.84-10T274.35,425a87.11,87.11,0,0,1,.52-9.7h61.86v-1.73Q336.73,396.94,327,388.44Zm-52,25.47q2.08-15.24,9.79-23.91t17.59-8.66a19.56,19.56,0,0,1,16.12,8q6.24,8,6.41,24.6Z" transform="translate(-20.55 -19.85)"/><path class="cls-2" d="M420.77,390.35Q409.34,380,391.06,380t-30.16,12Q349,403.87,349,425.52t11.44,32.06Q371.92,468,390.19,468t30.15-12q11.87-12,11.87-33.61T420.77,390.35Zm-9,64.55q-8.65,11.69-21.83,11.69t-21.14-10q-8-10.05-8-30.93T369.48,393q8.67-11.68,21.84-11.69t21.14,10.05q8,10,8,30.93T411.76,454.9Z" transform="translate(-20.55 -19.85)"/><path class="cls-2" d="M517.82,465.55q-2.09-.17-4.08-2.86t-2-7.71V400.74q0-8.48-4.33-13.86-2.78-3.28-8.75-5.11A54.71,54.71,0,0,0,483.16,380a27.07,27.07,0,0,0-17.5,6.5q-8,6.49-10.92,13.95V380.64H442.61v86.65h12.13V405.77q0-6.93,8.84-15.68t19.92-8.75a21,21,0,0,1,9,1.73q7.11,3.81,7.11,17.5V455l.17,2.95q.18,3.12,3.9,6.24t10.83,3.12h10.57V465.9h-5.37Z" transform="translate(-20.55 -19.85)"/><path class="cls-2" d="M603.42,465.55q-2.08-.17-4.08-2.86t-2-7.71V396.93q0-5.54-4.5-10.57Q587.12,380,569.28,380a74.24,74.24,0,0,0-31.37,7.11l.7,1.21q4-2.25,12.56-4.59a58,58,0,0,1,15-2.34,27.8,27.8,0,0,1,10.4,1.64,12.27,12.27,0,0,1,5.54,3.9,23.54,23.54,0,0,1,2.51,4.59,6.52,6.52,0,0,1,.61,3.82c-.23,1-.23,1.53,0,1.64V425.7q-3.81-.34-8.49-.35t-10.22.52q-22.37,1.39-28.94,7.63-3.3,3.12-4,5.71a18.8,18.8,0,0,0-.69,4.77,24.88,24.88,0,0,0,.35,4.25Q536.18,468,558,468q18.72,0,27.21-15.42v3.64q0,2.78,4,6.58,4.32,4.52,16.11,4.51h5.37V465.9h-5.37Zm-18.2-17.5q-.53,5.9-7.88,12.22a24.75,24.75,0,0,1-16.55,6.32q-13.87,0-15.42-18.36a30.63,30.63,0,0,1-.18-3.12q0-7.64,4-12t17.15-5.89a84.7,84.7,0,0,1,9.45-.52q4.76,0,9.44.34Z" transform="translate(-20.55 -19.85)"/><path class="cls-2" d="M661.29,380h-.69q-9.87.35-17.68,9.27a48.48,48.48,0,0,0-10.57,19V380.64H620.22v86.65h12.13V414.78q.35-8.31,6.76-17.76t14.21-12.56v3.63a7.71,7.71,0,0,0,8,8,8,8,0,0,0,5.81-2.26,7.58,7.58,0,0,0,2.34-5.72,8,8,0,0,0-8.15-8.14Z" transform="translate(-20.55 -19.85)"/><path class="cls-2" d="M759.89,465.55q-2.07-.17-4.07-2.86t-2-7.71V337.49H741.7v47.66a45.77,45.77,0,0,0-20.62-5.2q-21.84,0-32.76,12.3t-10.91,34.83q0,39.69,35.35,40.55a33.84,33.84,0,0,0,18-4.67q7.62-4.68,10.92-10.75V455l.17,2.95q.17,3.12,3.9,6.24t10.83,3.12h10.57V465.9H761.8ZM741.7,447.71q-.53,6.06-8.84,12.3t-19.93,6.24q-23.38,0-23.39-39.17,0-21.66,7.8-33.7t23.22-12q8.84,0,21.14,5.37Z" transform="translate(-20.55 -19.85)"/><path class="cls-2" d="M844.28,390.35Q832.85,380,814.56,380t-30.15,12q-11.86,12-11.87,33.61T784,457.58Q795.41,468,813.7,468t30.15-12q11.86-12,11.87-33.61T844.28,390.35Zm-9,64.55q-8.67,11.69-21.83,11.69t-21.14-10q-8-10.05-8-30.93T793,393q8.67-11.68,21.83-11.69T836,391.39q8,10,8,30.93T835.27,454.9Z" transform="translate(-20.55 -19.85)"/><path class="cls-2" d="M197.93,526.9q20.1-1.38,35.35-1.39,43,0,43,30.33a42.31,42.31,0,0,1-7.27,24.6q-3.83,5.73-11.79,9.1T238,592.92H212.31v53.89H197.93Zm35.52.34a194.4,194.4,0,0,0-21.14,1.22v62.73H238q24.43-1.05,24.43-35,0-13.86-7.28-21.4T233.45,527.24Z" transform="translate(-20.55 -19.85)"/><path class="cls-2" d="M360.12,646.81q-11.78,0-16.11-4.5-4-3.81-4-6.59v-3.64q-8.49,15.43-27.2,15.43-21.84,0-24.78-19.76a24.84,24.84,0,0,1-.35-4.24,18.68,18.68,0,0,1,.69-4.77q.69-2.6,4-5.72,6.58-6.24,28.94-7.62,5.54-.52,10.22-.52t8.49.34V576.46q-.34-.18,0-1.65a6.55,6.55,0,0,0-.6-3.81,24.14,24.14,0,0,0-2.52-4.59,12.27,12.27,0,0,0-5.54-3.9,27.58,27.58,0,0,0-10.4-1.65,73.12,73.12,0,0,0-27.55,6.93l-.69-1.21a74.33,74.33,0,0,1,31.36-7.1q17.85,0,23.57,6.41,4.5,5,4.5,10.57v58q0,5,2,7.71c1.32,1.79,2.68,2.75,4.07,2.86l1.9.35h5.38v1.38Zm-44.53-.69a24.74,24.74,0,0,0,16.55-6.33q7.37-6.31,7.88-12.21v-21c-3.12-.23-6.26-.35-9.44-.35a86.84,86.84,0,0,0-9.44.52Q308,608.34,304,612.68t-4,12a30.32,30.32,0,0,0,.18,3.12Q301.73,646.13,315.59,646.12Z" transform="translate(-20.55 -19.85)"/><path class="cls-2" d="M375.2,606.61q0-22.53,10.92-34.83t32.75-12.3a45.88,45.88,0,0,1,20.62,5.19V517h12.13V634.51q0,5,2,7.71c1.33,1.79,2.69,2.75,4.07,2.86l1.91.35H465v1.38H454.39q-7.11,0-10.83-3.12t-3.9-6.23l-.17-3v-2.77q-3.3,6.06-10.92,10.74a33.76,33.76,0,0,1-18,4.68Q375.2,646.29,375.2,606.61Zm35.52,39.16q11.61,0,19.93-6.24t8.84-12.3v-61q-12.3-5.37-21.14-5.37-15.44,0-23.22,12t-7.8,33.7Q387.33,645.78,410.72,645.77Z" transform="translate(-20.55 -19.85)"/><path class="cls-2" d="M511.49,647.51q-18.28,0-29.72-10.4t-11.44-32.06q0-21.66,11.87-33.62t30.16-11.95q18.27,0,29.71,10.39t11.44,32.06q0,21.66-11.87,33.62T511.49,647.51Zm1.13-86.65q-13.19,0-21.84,11.7t-8.66,32.58q0,20.88,8,30.93t21.14,10q13.17,0,21.83-11.7t8.67-32.57q0-20.88-8-30.94T512.62,560.86Z" transform="translate(-20.55 -19.85)"/><path class="cls-2" d="M626.29,561.21l1-1a6.27,6.27,0,0,1,1.82,2.08,9,9,0,0,1,1.39,3.12,14.4,14.4,0,0,1,.26,2.6,24.17,24.17,0,0,1-2.08,9.53l-33.27,69.31h-1.74l-32.23-86.64h12.13l26.51,71.74L627,577.5a17.15,17.15,0,0,0,2.08-8.67Q629.06,563.81,626.29,561.21Z" transform="translate(-20.55 -19.85)"/><path class="cls-2" d="M712.07,646.81q-11.79,0-16.12-4.5-4-3.81-4-6.59v-3.64q-8.49,15.43-27.2,15.43-21.84,0-24.78-19.76a25.9,25.9,0,0,1-.35-4.24,18.68,18.68,0,0,1,.69-4.77q.7-2.6,4-5.72,6.59-6.24,28.94-7.62,5.55-.52,10.22-.52t8.49.34V576.46q-.35-.18,0-1.65a6.47,6.47,0,0,0-.6-3.81,24.09,24.09,0,0,0-2.51-4.59,12.25,12.25,0,0,0-5.55-3.9,27.55,27.55,0,0,0-10.4-1.65,58.08,58.08,0,0,0-15,2.34,58.8,58.8,0,0,0-12.56,4.59l-.69-1.21a74.33,74.33,0,0,1,31.36-7.1q17.85,0,23.57,6.41,4.5,5,4.51,10.57v58q0,5,2,7.71c1.32,1.79,2.68,2.75,4.07,2.86l1.91.35h5.37v1.38Zm-44.54-.69a24.74,24.74,0,0,0,16.55-6.33q7.36-6.31,7.88-12.21v-21q-4.66-.35-9.44-.35a87,87,0,0,0-9.44.52q-13.17,1.56-17.16,5.9t-4,12a30.11,30.11,0,0,0,.17,3.12Q653.67,646.13,667.53,646.12Z" transform="translate(-20.55 -19.85)"/><path class="cls-2" d="M798.88,646.81q-7.11,0-10.83-3.12t-3.9-6.23l-.17-3V580.1q0-13.7-7.11-17.5a20.8,20.8,0,0,0-9-1.74q-11.08,0-19.92,8.75T739.1,585.3v61.51H727V560.17H739.1v19.75Q742,572.48,750,566a27.06,27.06,0,0,1,17.5-6.49A54.35,54.35,0,0,1,783,561.3q6,1.82,8.75,5.11,4.32,5.37,4.33,13.86v54.24q0,5,2,7.71c1.33,1.79,2.69,2.75,4.08,2.86l1.9.35h5.37v1.38Z" transform="translate(-20.55 -19.85)"/><path class="cls-2" d="M821.93,540.76a7,7,0,0,1-2.08-5.2,7.31,7.31,0,0,1,2.08-5.28,6.88,6.88,0,0,1,5.2-2.17,7.41,7.41,0,0,1,7.45,7.45,6.93,6.93,0,0,1-2.17,5.2,7.33,7.33,0,0,1-5.28,2.08A7,7,0,0,1,821.93,540.76Zm13.86,106q-7.11,0-10.83-3.12t-3.9-6.23l-.17-3V560.17H833v74.34q0,5,2,7.71c1.33,1.79,2.63,2.75,3.9,2.86l2.08.35h5.37v1.38Z" transform="translate(-20.55 -19.85)"/><g class="cls-3"><path class="cls-4" d="M970.13,428.12c43.16,279-294.44,540.22-502,507.37s-370.5-294.7-364-584.89S238.81,43.75,445.8,213.32C693.19,416,865.63-247.52,970.13,428.12Z" transform="translate(-20.55 -19.85)"/><path class="cls-4" d="M1022.25,444.59c63.28,322.58-332.35,579.74-570.44,513.16C220,892.91-77.12,574.27,61.37,385.07c118-161.2,106.89-445.13,355.44-232.32C637,341.29,871.81-322.25,1022.25,444.59Z" transform="translate(-20.55 -19.85)"/><path class="cls-4" d="M70.48,517.12C75.85,267.7,336.19-1.46,533.81,37.75c174,34.53,460.57,256.31,455,505.56s-348.2,527.08-527,275.44C299.81,590.75,58.2,1087.34,70.48,517.12Z" transform="translate(-20.55 -19.85)"/><path class="cls-4" d="M95.37,603.67C30,328.61,322.53,53.43,557.65,83.22c50.42,6.38,98.53,25.22,142.46,50,46.69,26.3,89.28,59.42,128.1,95.95a862.61,862.61,0,0,1,103.2,116.53c25.85,35.09,49.53,72.23,67.74,111.74,8.48,18.4,13.94,29.81,15,50.32,1.7,34-15.23,64.69-34.53,90.41C965.64,616.7,953,636.18,941,656c-24.78,40.92-46.75,83.4-70,125.13-20.37,36.47-41.48,73.61-69.31,105.2-20.27,23-46.65,44.89-79.06,46.37-39.18,1.79-73.46-25.46-99.33-51.37-7.68-7.69-15-15.75-22-24C392.25,611.65,245.37,1235,95.37,603.67Z" transform="translate(-20.55 -19.85)"/><path class="cls-4" d="M931.16,367.53C926.08,722.64,626.92,1039,464.9,874.74,340.33,748.43,26.79,719.89,126.63,423.29c75.44-224.13,169.16-565.71,372.18-307.54C660.81,321.75,937-42.13,931.16,367.53Z" transform="translate(-20.55 -19.85)"/><path class="cls-4" d="M26.51,422.73c-35.95-239.46,330.89-544.93,446.3-289,130.67,289.77,506.58-58.91,501,190.34s-288.88,855.61-455,506.66C394.05,568.68,113.59,1002.64,26.51,422.73Z" transform="translate(-20.55 -19.85)"/></g><path class="cls-2" d="M109,1089.41h-6.18v-72.83H109v9.18h.21a17.6,17.6,0,0,1,3.45-4.54,19.7,19.7,0,0,1,4.63-3.33,25.52,25.52,0,0,1,5.21-2,20.5,20.5,0,0,1,5.25-.7,26,26,0,0,1,11,2.11,20.64,20.64,0,0,1,7.47,5.8,23.6,23.6,0,0,1,4.27,8.73,41.59,41.59,0,0,1,1.34,10.79,38.09,38.09,0,0,1-1.44,10.5,25.69,25.69,0,0,1-4.38,8.82,21.58,21.58,0,0,1-7.42,6,23,23,0,0,1-10.56,2.27,25,25,0,0,1-10.87-2.47,18.9,18.9,0,0,1-8.19-7.31Zm0-46.5a28.07,28.07,0,0,0,1.24,8.42,21.57,21.57,0,0,0,3.55,7,17.31,17.31,0,0,0,5.67,4.74,15.93,15.93,0,0,0,7.57,1.77,17.55,17.55,0,0,0,8.3-1.87,16.16,16.16,0,0,0,5.82-5.09,21.67,21.67,0,0,0,3.29-7.52,33.19,33.19,0,0,0,.83-9.23,25.36,25.36,0,0,0-1.39-8.72A18.51,18.51,0,0,0,140,1026a16.28,16.28,0,0,0-5.77-4,18.67,18.67,0,0,0-7.21-1.37,17,17,0,0,0-7.73,1.72,16.22,16.22,0,0,0-5.66,4.69,21.16,21.16,0,0,0-3.46,7.06A31.58,31.58,0,0,0,109,1042.91Z" transform="translate(-20.55 -19.85)"/><path class="cls-2" d="M167.42,1068.83h-6.18v-52.25h6.18v9.78h.21q2.56-6.25,6.64-8.72c2.72-1.65,6.3-2.47,10.77-2.47v6.55a18.42,18.42,0,0,0-8.66,1.62A14.07,14.07,0,0,0,171,1028a18.21,18.21,0,0,0-2.79,6.91,44,44,0,0,0-.77,8.32Z" transform="translate(-20.55 -19.85)"/><path class="cls-2" d="M212.34,1070.24a28.21,28.21,0,0,1-9.63-1.81,21.5,21.5,0,0,1-7.83-5.15,24.64,24.64,0,0,1-5.31-8.57,33.79,33.79,0,0,1-1.95-12,36.17,36.17,0,0,1,1.54-10.74,25.18,25.18,0,0,1,4.64-8.72,21.83,21.83,0,0,1,7.72-5.9,25.27,25.27,0,0,1,10.82-2.17,25.56,25.56,0,0,1,10.93,2.17,22.06,22.06,0,0,1,7.72,5.85,24,24,0,0,1,4.59,8.72,38,38,0,0,1,1.49,10.79,34.19,34.19,0,0,1-1.75,11.3,25.18,25.18,0,0,1-5,8.68,21.92,21.92,0,0,1-7.83,5.6A25.48,25.48,0,0,1,212.34,1070.24Zm18.14-27.54a35.28,35.28,0,0,0-1-8.67,20.23,20.23,0,0,0-3.2-7,15.2,15.2,0,0,0-5.56-4.69,18.46,18.46,0,0,0-8.35-1.72,17.24,17.24,0,0,0-8.29,1.87,16.28,16.28,0,0,0-5.62,4.94,21.76,21.76,0,0,0-3.19,7.06,32.6,32.6,0,0,0-1,8.22,31.94,31.94,0,0,0,1.18,8.93,20.54,20.54,0,0,0,3.46,7,15.4,15.4,0,0,0,5.66,4.54,18,18,0,0,0,7.83,1.62,17.16,17.16,0,0,0,8.3-1.87,15.89,15.89,0,0,0,5.61-5,22.15,22.15,0,0,0,3.2-7.06A32.51,32.51,0,0,0,230.48,1042.7Z" transform="translate(-20.55 -19.85)"/><path class="cls-2" d="M285.5,996.2h6.18v72.63H285.5v-9.18h-.21a16.29,16.29,0,0,1-3.45,4.59,20.76,20.76,0,0,1-4.64,3.28,24.66,24.66,0,0,1-5.2,2,20.61,20.61,0,0,1-5.25.7,26,26,0,0,1-11-2.11,20.56,20.56,0,0,1-7.47-5.81,23.32,23.32,0,0,1-4.27-8.72,41.59,41.59,0,0,1-1.34-10.79,38.09,38.09,0,0,1,1.44-10.5,25.69,25.69,0,0,1,4.38-8.82,21.58,21.58,0,0,1,7.42-6,23,23,0,0,1,10.56-2.27,25,25,0,0,1,10.87,2.47,19,19,0,0,1,8.19,7.31Zm0,46.3a28.07,28.07,0,0,0-1.24-8.42,21.57,21.57,0,0,0-3.55-7,17.54,17.54,0,0,0-5.67-4.74,16,16,0,0,0-7.57-1.77,17.59,17.59,0,0,0-8.35,1.87,16.44,16.44,0,0,0-5.77,5.09,22,22,0,0,0-3.3,7.52,33.58,33.58,0,0,0-.82,9.23,25.13,25.13,0,0,0,1.39,8.72,18.51,18.51,0,0,0,3.87,6.41,16.44,16.44,0,0,0,5.77,4,18.82,18.82,0,0,0,7.21,1.36,16.87,16.87,0,0,0,7.73-1.72,16.11,16.11,0,0,0,5.66-4.69,21.34,21.34,0,0,0,3.45-7.06A31.52,31.52,0,0,0,285.5,1042.5Z" transform="translate(-20.55 -19.85)"/><path class="cls-2" d="M339.28,1016.58h6.19v52.25h-6.19v-7.26c-.82.94-1.75,1.91-2.78,2.92a20.18,20.18,0,0,1-8.24,4.9,20.38,20.38,0,0,1-6.18.85,23.89,23.89,0,0,1-9-1.46,14.74,14.74,0,0,1-5.82-4.08,16,16,0,0,1-3.19-6.11,27.76,27.76,0,0,1-1-7.61v-34.4h6.18v34.3q0,6.75,3.19,10.34T323,1064.8a15.59,15.59,0,0,0,6.86-1.47,14.28,14.28,0,0,0,5.1-4.08,19.44,19.44,0,0,0,3.19-6.26,26.47,26.47,0,0,0,1.13-8Z" transform="translate(-20.55 -19.85)"/><path class="cls-2" d="M394.1,1033a17.55,17.55,0,0,0-5.67-9.13,15.65,15.65,0,0,0-10.2-3.28,15.77,15.77,0,0,0-13.7,7,22.87,22.87,0,0,0-3.2,7.17,32.2,32.2,0,0,0-1,8,33.51,33.51,0,0,0,1,8.07,21.4,21.4,0,0,0,3.14,7.06,16.11,16.11,0,0,0,5.57,5,16.84,16.84,0,0,0,8.24,1.87q6.9,0,11.08-3.74a17.16,17.16,0,0,0,5.3-10.29h6.6a30.33,30.33,0,0,1-2.58,7.77,21,21,0,0,1-4.53,6.11,20.29,20.29,0,0,1-6.6,4,25.76,25.76,0,0,1-8.75,1.56l-3.71,4.54,1.85-.4a8.41,8.41,0,0,1,1.86-.2,8.65,8.65,0,0,1,5.51,1.66,5.9,5.9,0,0,1,2.42,3.58,8.42,8.42,0,0,1-.26,4.69,7,7,0,0,1-2.42,3.18,11.66,11.66,0,0,1-3.91,1.82,18.55,18.55,0,0,1-4.74.6,20.72,20.72,0,0,1-4.74-.55,45,45,0,0,1-4.64-1.36l1.55-3,3.24,1a11.27,11.27,0,0,0,3.35.5,11,11,0,0,0,2.32-.25,8.23,8.23,0,0,0,2.21-.81,4.5,4.5,0,0,0,1.65-1.46,3.87,3.87,0,0,0,.62-2.22,3.2,3.2,0,0,0-1.6-3,6.75,6.75,0,0,0-3.55-1,10.32,10.32,0,0,0-2.27.25c-.75.17-1.51.35-2.27.55l-1.54-1.31,5.36-7.16a23.76,23.76,0,0,1-9.59-2.77,20.72,20.72,0,0,1-6.64-5.9,24.8,24.8,0,0,1-3.86-8.33,39.33,39.33,0,0,1-1.24-10.13,33.82,33.82,0,0,1,1.6-10.44,27,27,0,0,1,4.68-8.83,22.47,22.47,0,0,1,7.68-6.1,23.43,23.43,0,0,1,10.56-2.27q9.27,0,15,4.33t7.16,13.52Z" transform="translate(-20.55 -19.85)"/><path class="cls-2" d="M430.68,1070.24a28.22,28.22,0,0,1-9.64-1.81,21.5,21.5,0,0,1-7.83-5.15,24.48,24.48,0,0,1-5.3-8.57,33.56,33.56,0,0,1-2-12,36.17,36.17,0,0,1,1.54-10.74,25.18,25.18,0,0,1,4.64-8.72,21.87,21.87,0,0,1,7.73-5.9,25.21,25.21,0,0,1,10.82-2.17,25.48,25.48,0,0,1,10.92,2.17,22.09,22.09,0,0,1,7.73,5.85,24,24,0,0,1,4.58,8.72,37.67,37.67,0,0,1,1.5,10.79,34.18,34.18,0,0,1-1.76,11.3,25.16,25.16,0,0,1-5,8.68,22.1,22.1,0,0,1-7.83,5.6A25.52,25.52,0,0,1,430.68,1070.24Zm18.13-27.54a34.81,34.81,0,0,0-1-8.67,20.41,20.41,0,0,0-3.19-7,15.31,15.31,0,0,0-5.57-4.69,18.41,18.41,0,0,0-8.34-1.72,17.28,17.28,0,0,0-8.3,1.87,16.15,16.15,0,0,0-5.61,4.94,21.57,21.57,0,0,0-3.2,7.06,33.06,33.06,0,0,0-1,8.22,31.94,31.94,0,0,0,1.19,8.93,20.7,20.7,0,0,0,3.45,7,15.35,15.35,0,0,0,5.67,4.54,18,18,0,0,0,7.83,1.62,17.15,17.15,0,0,0,8.29-1.87,16,16,0,0,0,5.62-5,22.35,22.35,0,0,0,3.19-7.06A32.06,32.06,0,0,0,448.81,1042.7Zm-33.59-33a15.38,15.38,0,0,1,.72-3.28,11.71,11.71,0,0,1,1.34-2.67,9.6,9.6,0,0,1,4-3.18,7.93,7.93,0,0,1,5.1-.45,16.53,16.53,0,0,1,3.09,1c1.1.47,2.22,1,3.35,1.46s2.23.94,3.3,1.31a9,9,0,0,0,2.93.55,3.38,3.38,0,0,0,3.2-1.61,12.81,12.81,0,0,0,1.34-3.43h3.91a12.9,12.9,0,0,1-.36,2c-.17.64-.33,1.26-.46,1.86a15.51,15.51,0,0,1-2.89,4.24,6.29,6.29,0,0,1-4.74,1.82,11.65,11.65,0,0,1-4.07-.71c-1.27-.47-2.52-1-3.76-1.56s-2.45-1.1-3.66-1.57a9.66,9.66,0,0,0-3.55-.7,3.8,3.8,0,0,0-3.4,1.51,13.14,13.14,0,0,0-1.65,3.43Z" transform="translate(-20.55 -19.85)"/><path class="cls-2" d="M466.43,1044.12a28.06,28.06,0,0,0,1.13,8,19.14,19.14,0,0,0,3.35,6.55,16.17,16.17,0,0,0,5.62,4.44,17.55,17.55,0,0,0,7.83,1.67,17.35,17.35,0,0,0,10.41-3.13,15.07,15.07,0,0,0,5.77-8.88h6.9a32.27,32.27,0,0,1-3,6.91,21.37,21.37,0,0,1-4.64,5.55,20,20,0,0,1-6.59,3.68,27.09,27.09,0,0,1-8.86,1.31,26.44,26.44,0,0,1-11-2.11,20.76,20.76,0,0,1-7.62-5.81,24.21,24.21,0,0,1-4.43-8.67,38.62,38.62,0,0,1-1.44-10.74,33.44,33.44,0,0,1,1.7-10.8,27.12,27.12,0,0,1,4.84-8.82,22.33,22.33,0,0,1,7.67-5.95,23.57,23.57,0,0,1,10.31-2.17q11,0,17.31,7.41t6.18,21.54Zm34.83-5a23.55,23.55,0,0,0-1.08-7.21A16.91,16.91,0,0,0,497,1026a15.1,15.1,0,0,0-5.31-3.93,17.29,17.29,0,0,0-7.31-1.47,16.2,16.2,0,0,0-12.62,5.55,20.06,20.06,0,0,0-3.56,5.85,26.67,26.67,0,0,0-1.75,7.06Z" transform="translate(-20.55 -19.85)"/><path class="cls-2" d="M519.39,1052.49q1.44,6.77,5.2,9.53t10.77,2.78a18.87,18.87,0,0,0,5.87-.81,11.82,11.82,0,0,0,4.07-2.17,9.44,9.44,0,0,0,2.43-3.08,8.38,8.38,0,0,0,.82-3.63,6.64,6.64,0,0,0-2.52-5.7,19.29,19.29,0,0,0-6.34-2.92,83.63,83.63,0,0,0-8.24-1.82,40.55,40.55,0,0,1-8.25-2.27,16.42,16.42,0,0,1-6.33-4.34q-2.54-2.82-2.53-8a13.49,13.49,0,0,1,4.9-10.75q4.89-4.19,13.85-4.18,8.65,0,14.07,3.78t6.54,12.66h-6.28q-.82-6.06-4.69-8.53a17.82,17.82,0,0,0-9.74-2.47c-3.91,0-6.9.83-9,2.47a7.94,7.94,0,0,0-3.09,6.51,6.31,6.31,0,0,0,2.52,5.4,20.77,20.77,0,0,0,6.34,3q3.81,1.17,8.24,2.07a42.19,42.19,0,0,1,8.24,2.57,18.08,18.08,0,0,1,6.34,4.49q2.52,2.83,2.52,7.87a13.15,13.15,0,0,1-1.64,6.61,14.21,14.21,0,0,1-4.54,4.79,21.31,21.31,0,0,1-6.85,2.88,37.62,37.62,0,0,1-8.71,1,23.85,23.85,0,0,1-8.39-1.36,18.43,18.43,0,0,1-6.24-3.78,17.62,17.62,0,0,1-4-5.65,19.4,19.4,0,0,1-1.64-7Z" transform="translate(-20.55 -19.85)"/><path class="cls-2" d="M617.58,1068.83H611.4v-52.25h6.18v7.87h.21a16.09,16.09,0,0,1,6.8-6.91,20.2,20.2,0,0,1,9.69-2.37,21.51,21.51,0,0,1,6.28.8,14.24,14.24,0,0,1,4.38,2.17,12.69,12.69,0,0,1,3,3.18,21.37,21.37,0,0,1,2,3.93,17.7,17.7,0,0,1,7.16-7.61,20.84,20.84,0,0,1,10.25-2.47,18.39,18.39,0,0,1,8.71,1.76,12.88,12.88,0,0,1,5,4.64,17.67,17.67,0,0,1,2.32,6.61,50.71,50.71,0,0,1,.57,7.67v33h-6.18v-36.11q0-5.65-2.42-8.88t-9-3.23a15.23,15.23,0,0,0-6.54,1.47,15,15,0,0,0-5.52,4.48,11.81,11.81,0,0,0-1.69,3.08,26.07,26.07,0,0,0-1.09,3.68,29.87,29.87,0,0,0-.56,3.84c-.11,1.28-.16,2.45-.16,3.53v28.14h-6.18v-36.11q0-5.65-2.42-8.88t-9-3.23a15.26,15.26,0,0,0-6.54,1.47,15,15,0,0,0-5.51,4.48,11.55,11.55,0,0,0-1.7,3.08,24.79,24.79,0,0,0-1.08,3.68,28.25,28.25,0,0,0-.57,3.84c-.1,1.28-.16,2.45-.16,3.53Z" transform="translate(-20.55 -19.85)"/><path class="cls-2" d="M730.1,1016.58h6.18v52.25H730.1v-7.26c-.83.94-1.75,1.91-2.78,2.92a21,21,0,0,1-3.56,2.78,20.51,20.51,0,0,1-4.69,2.12,20.29,20.29,0,0,1-6.18.85,23.83,23.83,0,0,1-9-1.46,14.59,14.59,0,0,1-5.82-4.08,16,16,0,0,1-3.2-6.11,28.15,28.15,0,0,1-1-7.61v-34.4h6.19v34.3q0,6.75,3.19,10.34t10.51,3.58a15.54,15.54,0,0,0,6.85-1.47,14.11,14.11,0,0,0,5.1-4.08A19.46,19.46,0,0,0,729,1053a26.79,26.79,0,0,0,1.13-8Z" transform="translate(-20.55 -19.85)"/><path class="cls-2" d="M750.71,1052.49q1.44,6.77,5.2,9.53c2.51,1.85,6.09,2.78,10.77,2.78a19,19,0,0,0,5.87-.81,11.91,11.91,0,0,0,4.07-2.17,9.41,9.41,0,0,0,2.42-3.08,8.25,8.25,0,0,0,.83-3.63,6.65,6.65,0,0,0-2.53-5.7,19.19,19.19,0,0,0-6.34-2.92,83.63,83.63,0,0,0-8.24-1.82,40.64,40.64,0,0,1-8.24-2.27,16.46,16.46,0,0,1-6.34-4.34q-2.52-2.82-2.52-8a13.52,13.52,0,0,1,4.89-10.75q4.89-4.19,13.86-4.18,8.65,0,14.06,3.78t6.55,12.66h-6.29q-.83-6.06-4.69-8.53a17.79,17.79,0,0,0-9.73-2.47c-3.92,0-6.91.83-9,2.47a7.94,7.94,0,0,0-3.09,6.51,6.29,6.29,0,0,0,2.53,5.4,20.71,20.71,0,0,0,6.33,3q3.81,1.17,8.25,2.07a42.19,42.19,0,0,1,8.24,2.57,18.17,18.17,0,0,1,6.34,4.49q2.52,2.83,2.52,7.87a13,13,0,0,1-1.65,6.61,14.18,14.18,0,0,1-4.53,4.79,21.4,21.4,0,0,1-6.85,2.88,37.62,37.62,0,0,1-8.71,1,24,24,0,0,1-8.4-1.36,18.29,18.29,0,0,1-6.23-3.78,17.47,17.47,0,0,1-4-5.65,19.62,19.62,0,0,1-1.65-7Z" transform="translate(-20.55 -19.85)"/><path class="cls-2" d="M795.12,1005.18v-9h6.79v9Zm.3,63.65v-52.25h6.19v52.25Z" transform="translate(-20.55 -19.85)"/><path class="cls-2" d="M851.06,1033a17.59,17.59,0,0,0-5.66-9.13,15.65,15.65,0,0,0-10.21-3.28,15.77,15.77,0,0,0-13.7,7,22.63,22.63,0,0,0-3.19,7.17,31.74,31.74,0,0,0-1,8,33.51,33.51,0,0,0,1,8.07,21.63,21.63,0,0,0,3.15,7.06,16,16,0,0,0,5.56,5,16.84,16.84,0,0,0,8.24,1.87q6.91,0,11.08-3.74a17.22,17.22,0,0,0,5.31-10.29h6.59a29.86,29.86,0,0,1-2.63,7.92,20.92,20.92,0,0,1-4.63,6.16,20.07,20.07,0,0,1-6.75,4,29.56,29.56,0,0,1-20-.7,20.88,20.88,0,0,1-7.63-5.81,24.2,24.2,0,0,1-4.43-8.72,39.13,39.13,0,0,1-1.44-10.79,33.82,33.82,0,0,1,1.6-10.44,27,27,0,0,1,4.69-8.83,22.53,22.53,0,0,1,7.67-6.1,23.43,23.43,0,0,1,10.56-2.27q9.28,0,15,4.33t7.16,13.52Z" transform="translate(-20.55 -19.85)"/><path class="cls-2" d="M890.94,1038.37c1.16-.14,2.55-.34,4.17-.61a16.17,16.17,0,0,0,4-1.11,3.22,3.22,0,0,0,1.9-2.37,14.58,14.58,0,0,0,.36-3.07,10.18,10.18,0,0,0-3-7.62q-3-3-10.25-3a28.89,28.89,0,0,0-5.87.56,13.05,13.05,0,0,0-4.69,1.91,10.65,10.65,0,0,0-3.3,3.64,15.21,15.21,0,0,0-1.7,5.7h-6.28a18.35,18.35,0,0,1,2.16-7.92,16.27,16.27,0,0,1,4.79-5.35,20.15,20.15,0,0,1,6.8-3,34.45,34.45,0,0,1,8.2-1,32.34,32.34,0,0,1,7.57.85,17.77,17.77,0,0,1,6.18,2.73,12.74,12.74,0,0,1,4.12,5,17.66,17.66,0,0,1,1.5,7.67v28.44c0,2.36.42,3.85,1.28,4.49s2.6.49,5.21-.45v4.74l-2.11.6a9.79,9.79,0,0,1-2.74.41,12.67,12.67,0,0,1-2.78-.3,4.9,4.9,0,0,1-2.47-1,5.82,5.82,0,0,1-1.49-1.82,7.39,7.39,0,0,1-.78-2.32,16.26,16.26,0,0,1-.2-2.67,26.44,26.44,0,0,1-19.89,8.67,25.16,25.16,0,0,1-6.75-.9,16.57,16.57,0,0,1-5.72-2.83,13.53,13.53,0,0,1-5.35-11.3q0-13.31,18.65-15.73Zm10.4,3a30.38,30.38,0,0,1-7.93,2.12q-4,.51-8,.81-7.11.51-11.07,3.13c-2.65,1.75-4,4.4-4,8a8.5,8.5,0,0,0,1,4.18,9,9,0,0,0,2.57,2.93,11.18,11.18,0,0,0,3.71,1.71,16.82,16.82,0,0,0,4.28.56,28.84,28.84,0,0,0,7.21-.91,19.78,19.78,0,0,0,6.24-2.78,14.21,14.21,0,0,0,4.38-4.74,13.52,13.52,0,0,0,1.64-6.81Z" transform="translate(-20.55 -19.85)"/><path class="cls-2" d="M920.2,1005.18v-9H927v9Zm.31,63.65v-52.25h6.18v52.25Z" transform="translate(-20.55 -19.85)"/><path class="cls-2" d="M941.94,1052.49q1.44,6.77,5.2,9.53t10.77,2.78a18.92,18.92,0,0,0,5.87-.81,11.82,11.82,0,0,0,4.07-2.17,9.28,9.28,0,0,0,2.42-3.08,8.25,8.25,0,0,0,.83-3.63,6.62,6.62,0,0,0-2.53-5.7,19.14,19.14,0,0,0-6.33-2.92,83.22,83.22,0,0,0-8.25-1.82,40.64,40.64,0,0,1-8.24-2.27,16.53,16.53,0,0,1-6.34-4.34q-2.52-2.82-2.52-8a13.52,13.52,0,0,1,4.89-10.75q4.9-4.19,13.86-4.18,8.65,0,14.07,3.78t6.54,12.66H970q-.83-6.06-4.68-8.53a17.85,17.85,0,0,0-9.74-2.47c-3.92,0-6.9.83-9,2.47a7.94,7.94,0,0,0-3.09,6.51A6.29,6.29,0,0,0,946,1035a20.66,20.66,0,0,0,6.34,3c2.54.78,5.28,1.47,8.24,2.07a42.19,42.19,0,0,1,8.24,2.57,18.17,18.17,0,0,1,6.34,4.49q2.52,2.83,2.52,7.87a13,13,0,0,1-1.65,6.61,14.18,14.18,0,0,1-4.53,4.79,21.31,21.31,0,0,1-6.85,2.88,37.62,37.62,0,0,1-8.71,1,24,24,0,0,1-8.4-1.36,18.48,18.48,0,0,1-6.23-3.78,17.47,17.47,0,0,1-4-5.65,19.62,19.62,0,0,1-1.65-7Z" transform="translate(-20.55 -19.85)"/><text x="-20.55" y="-19.85"/></svg>